<svg id="Layer_1" data-name="Layer 1" xmlns="http://www.w3.org/2000/svg" xmlns:xlink="http://www.w3.org/1999/xlink" viewBox="0 0 784.34 308.98"><defs><style>.cls-1{fill:none;stroke:#c71819;stroke-miterlimit:10;stroke-width:2px;}</style></defs><image width="414" height="736" transform="scale(0.42 0.42)" xlink:href="../../../../Desktop/iPhone%206,%207,%208%20Plus%20%E2%80%93%201.png"/><image width="414" height="736" transform="translate(198.86 0) scale(0.42 0.42)" xlink:href="../../../../Desktop/iPhone%206,%207,%208%20Plus%20%E2%80%93%202.png"/><image width="414" height="736" transform="translate(611.42 0) scale(0.42 0.42)" xlink:href="../../../../Desktop/iPhone%206,%207,%208%20Plus%20%E2%80%93%203.png"/><image width="414" height="736" transform="translate(405.45 0) scale(0.42 0.42)" xlink:href="../../../../Desktop/iPhone%206,%207,%208%20Plus%20%E2%80%93%204.png"/><line class="cls-1" x1="161.37" y1="82.43" x2="198.86" y2="82.43"/><line class="cls-1" x1="344.02" y1="281.63" x2="410.2" y2="281.63"/><line class="cls-1" x1="550.34" y1="291.14" x2="616.52" y2="291.14"/><circle class="cls-1" cx="345.02" cy="100" r="9.49"/><circle class="cls-1" cx="468.5" cy="44.39" r="9.49"/><circle class="cls-1" cx="551.34" cy="109.49" r="9.49"/><circle class="cls-1" cx="551.34" cy="137.39" r="9.49"/><circle class="cls-1" cx="551.34" cy="191.65" r="9.49"/><circle class="cls-1" cx="471.8" cy="222.4" r="9.49"/><circle class="cls-1" cx="471.8" cy="163.97" r="9.49"/><circle class="cls-1" cx="471.8" cy="86.16" r="9.49"/><circle class="cls-1" cx="345.02" cy="176.54" r="9.49"/><circle class="cls-1" cx="345.02" cy="212.91" r="9.49"/><circle class="cls-1" cx="235.37" cy="142.24" r="9.49"/></svg>